<svg width="344" height="115" viewBox="0 0 344 115" fill="none"
    xmlns="http://www.w3.org/2000/svg">
    <g filter="url(#filter0_d_129_9730)">
        <path d="M283.775 80.9423H280.152V78.6319C280.18 78.209 280.142 77.7844 280.037 77.3727C279.989 77.2857 279.914 77.215 279.823 77.1703C279.731 77.1255 279.628 77.1088 279.526 77.1225C279.41 77.106 279.291 77.1269 279.189 77.1818C279.086 77.2367 279.006 77.3226 278.959 77.4261C278.854 77.8568 278.814 78.2998 278.839 78.7415V84.9251C278.814 85.3501 278.855 85.7763 278.959 86.19C279.003 86.2889 279.08 86.3714 279.178 86.4247C279.275 86.478 279.388 86.4992 279.5 86.4851C279.609 86.4976 279.72 86.4755 279.816 86.4223C279.911 86.369 279.986 86.2875 280.028 86.19C280.14 85.7297 280.181 85.2563 280.152 84.7846V83.1122H283.766V83.6322C283.766 85.0095 283.666 85.9848 283.472 86.561C283.217 87.1986 282.742 87.7332 282.125 88.076C281.357 88.5306 280.467 88.7593 279.564 88.7337C278.655 88.7639 277.754 88.5704 276.945 88.1716C276.3 87.8531 275.811 87.3066 275.58 86.6481C275.318 85.693 275.205 84.7061 275.245 83.7193V79.8433C275.233 79.1224 275.267 78.4015 275.348 77.6846C275.427 77.1806 275.638 76.7038 275.962 76.2989C276.329 75.8362 276.819 75.4753 277.38 75.2533C278.137 74.9694 278.948 74.8411 279.761 74.877C280.573 74.9128 281.369 75.1119 282.095 75.4613C282.72 75.7802 283.204 76.3028 283.461 76.9342C283.678 77.5207 283.787 78.4361 283.787 79.6803L283.775 80.9423Z" fill="#366694"/>
        <path d="M289.707 74.5957L286.882 76.8246H285.141L286.653 74.5957H289.707ZM288.532 88.4611H284.968V77.5554H288.538L288.532 88.4611Z" fill="#366694"/>
        <path d="M293.987 83.2695C293.433 83.6574 293.111 83.9835 293.021 84.2477C292.917 84.6138 292.872 84.9928 292.886 85.372C292.859 85.7402 292.899 86.11 293.003 86.4653C293.043 86.5474 293.108 86.6155 293.19 86.6599C293.273 86.7043 293.367 86.7228 293.461 86.7127C293.544 86.7241 293.629 86.7118 293.705 86.6773C293.78 86.6428 293.844 86.5876 293.887 86.5187C293.978 86.188 294.011 85.8452 293.987 85.5041V83.2695ZM292.886 81.7742H289.632V81.0406C289.599 80.3784 289.698 79.7161 289.926 79.0899C290.189 78.5714 290.618 78.147 291.15 77.8785C291.882 77.4995 292.707 77.3178 293.538 77.3529C294.712 77.3529 295.593 77.5496 296.18 77.9488C296.451 78.1121 296.686 78.3254 296.871 78.5763C297.055 78.8272 297.186 79.1107 297.255 79.4104C297.372 79.9894 297.432 81.1793 297.434 82.98V88.4553H294.081V87.4828C293.904 87.8475 293.618 88.1535 293.258 88.3617C292.899 88.57 292.483 88.6711 292.064 88.6521C291.468 88.6551 290.885 88.4846 290.393 88.163C289.888 87.837 289.632 87.1231 289.632 86.0212V85.1274C289.632 84.3086 289.767 83.752 290.038 83.4578C290.308 83.1637 290.974 82.8189 292.037 82.4235C293.176 81.9963 293.784 81.7067 293.866 81.5606C293.969 81.2695 294.01 80.9619 293.987 80.6555C294.017 80.2759 293.972 79.8943 293.852 79.5312C293.815 79.4502 293.753 79.382 293.674 79.3358C293.595 79.2896 293.504 79.2675 293.411 79.2726C293.176 79.2726 293.03 79.3457 292.974 79.4891C292.893 79.8586 292.864 80.2365 292.886 80.6134V81.7742Z" fill="#366694"/>
        <path d="M300.953 88.4555H298.334V85.7432H300.953V88.4555Z" fill="#366694"/>
        <path d="M308.706 75.1577V85.7992H310.905V88.4638H305.092V75.1577H308.706Z" fill="#366694"/>
        <path d="M315.33 76.0938V77.8111H316.263V79.5369H315.327V85.372C315.327 86.0916 315.365 86.4963 315.444 86.5722C315.523 86.6481 315.843 86.6959 316.41 86.6959V88.4554H315.01C314.447 88.4713 313.884 88.4421 313.327 88.3683C312.997 88.3052 312.691 88.1542 312.446 87.9326C312.203 87.7282 312.034 87.4543 311.965 87.1512C311.88 86.4658 311.849 85.7752 311.871 85.0853V79.5369H311.125V77.8111H311.859V76.0938H315.33Z" fill="#366694"/>
        <path d="M321.45 80.293C321.47 80.0207 321.433 79.7473 321.341 79.4891C321.3 79.4184 321.238 79.361 321.162 79.3244C321.087 79.2879 321.002 79.2737 320.918 79.2839C320.838 79.2744 320.756 79.2868 320.682 79.3195C320.608 79.3523 320.546 79.4043 320.501 79.4694C320.407 79.734 320.37 80.0142 320.393 80.293V85.6334C320.371 85.9285 320.407 86.2249 320.498 86.5075C320.533 86.5773 320.59 86.635 320.66 86.6728C320.731 86.7105 320.811 86.7264 320.892 86.7183C320.983 86.7282 321.074 86.7107 321.154 86.6684C321.234 86.6261 321.298 86.561 321.338 86.4822C321.439 86.109 321.476 85.7228 321.45 85.3383V80.293ZM324.917 75.1577V88.4638H321.45V87.6712C321.151 87.9782 320.796 88.2298 320.401 88.4132C320.043 88.5772 319.651 88.6618 319.253 88.6606C318.753 88.671 318.262 88.5282 317.853 88.253C317.495 88.0308 317.227 87.6988 317.092 87.3114C316.957 86.741 316.901 86.156 316.925 85.5715V80.4588C316.899 79.8594 316.956 79.2594 317.092 78.674C317.231 78.2907 317.502 77.9644 317.862 77.7492C318.285 77.4784 318.786 77.3399 319.294 77.3529C319.699 77.3454 320.101 77.4207 320.472 77.5739C320.844 77.7271 321.177 77.9546 321.45 78.2411V75.1577H324.917Z" fill="#366694"/>
        <path d="M330.357 83.2695C329.801 83.6574 329.479 83.9835 329.391 84.2477C329.29 84.6143 329.246 84.993 329.259 85.372C329.234 85.74 329.273 86.1095 329.374 86.4654C329.414 86.5472 329.479 86.615 329.561 86.6593C329.643 86.7037 329.738 86.7223 329.832 86.7127C329.915 86.7245 330 86.7123 330.076 86.6778C330.151 86.6433 330.215 86.5879 330.258 86.5188C330.35 86.1883 330.384 85.8453 330.357 85.5041V83.2695ZM329.259 81.7742H326.003V81.0406C325.969 80.3784 326.069 79.7161 326.297 79.0899C326.559 78.5714 326.988 78.147 327.521 77.8785C328.252 77.4995 329.077 77.3178 329.908 77.3529C331.083 77.3529 331.963 77.5496 332.551 77.9488C332.822 78.1121 333.057 78.3254 333.241 78.5763C333.426 78.8272 333.556 79.1107 333.625 79.4104C333.747 79.9894 333.806 81.1793 333.804 82.98V88.4554H330.431V87.4828C330.254 87.8475 329.968 88.1535 329.608 88.3617C329.249 88.57 328.833 88.6711 328.414 88.6521C327.818 88.6551 327.235 88.4846 326.743 88.163C326.238 87.837 325.982 87.1231 325.982 86.0212V85.1274C325.982 84.3086 326.117 83.752 326.388 83.4578C326.655 83.1768 327.324 82.817 328.387 82.4235C329.526 81.9963 330.149 81.7067 330.216 81.5606C330.319 81.2695 330.36 80.9619 330.337 80.6555C330.367 80.2759 330.322 79.8943 330.202 79.5312C330.165 79.4502 330.103 79.382 330.024 79.3358C329.945 79.2896 329.854 79.2675 329.761 79.2726C329.526 79.2726 329.38 79.3457 329.324 79.4891C329.245 79.8588 329.216 80.2367 329.239 80.6134L329.259 81.7742Z" fill="#366694"/>
        <path d="M337.336 88.4555H334.72V85.7432H337.336V88.4555Z" fill="#366694"/>
    </g>
    <g filter="url(#filter1_ddd_129_9730)">
        <path d="M285.885 36.4562L270.695 56.5799C270.546 54.5289 270.262 52.9144 269.834 51.6871C269.153 49.7322 267.721 48.0849 265.578 46.7917C263.434 45.4985 260.761 44.8697 257.55 44.8697C257.274 44.8697 257.751 44.8697 257.469 44.8889L271.121 25.762C271.813 28.0216 274.05 30.7673 277.101 32.9885C280.092 35.1575 283.316 36.4562 285.725 36.4562H285.885Z" fill="#366694"/>
        <path d="M285.27 29.0993L282.202 33.2811L284.131 34.6834L287.199 30.5016L285.27 29.0993Z" fill="#366694"/>
        <path d="M281.151 29.3011C281.097 28.9615 280.924 28.6519 280.662 28.428C280.4 28.204 280.067 28.0804 279.722 28.0793C279.645 28.0787 279.568 28.0851 279.493 28.0985C279.209 28.1431 278.946 28.2701 278.735 28.4635C278.524 28.6569 278.375 28.9081 278.307 29.1855C278.239 29.4628 278.256 29.754 278.354 30.0222C278.452 30.2905 278.627 30.5239 278.858 30.6931C279.17 30.9176 279.558 31.0104 279.939 30.9512C280.319 30.8921 280.66 30.6858 280.889 30.3773C281.002 30.2241 281.083 30.0501 281.128 29.8654C281.173 29.6806 281.181 29.4888 281.151 29.3011Z" fill="#366694"/>
        <path d="M245.94 8.69971L234.01 24.9658L240.66 29.7982L252.591 13.5321L245.94 8.69971Z" fill="#366694"/>
        <path d="M253.315 14.0524L241.38 30.3186L248.03 35.1521L259.965 18.8859L253.315 14.0524Z" fill="#366694"/>
        <path d="M266.012 31.9424L263.598 30.1879L259.218 36.1542L261.634 37.9114L266.012 31.9424Z" fill="#366694"/>
        <path d="M260.567 19.2772L248.629 35.59L255.299 40.4255L267.237 24.1126L260.567 19.2772Z" fill="#366694"/>
        <path d="M302.58 50.1601L290.661 66.4345L297.315 71.2623L309.234 54.9879L302.58 50.1601Z" fill="#366694"/>
        <path d="M295.437 44.9741L283.519 61.2528L290.174 66.0794L302.092 49.8007L295.437 44.9741Z" fill="#366694"/>
        <path d="M281.633 43.0759L284.05 44.8304L279.68 50.8049L277.261 49.0477L281.633 43.0759Z" fill="#366694"/>
        <path d="M288.317 39.8124L276.398 56.0868L283.052 60.9146L294.971 44.6402L288.317 39.8124Z" fill="#366694"/>
    </g>
    <g filter="url(#filter2_ddd_129_9730)">
        <path d="M259.179 64.8756V57.468C259.179 55.3153 259.06 53.9721 258.822 53.4381C258.588 52.9042 258.063 52.6344 257.254 52.6344C256.338 52.6344 255.758 52.9595 255.515 53.6096C255.271 54.2596 255.149 55.6647 255.147 57.8248V77.617C255.147 79.6872 255.27 81.0389 255.515 81.6721C255.76 82.3054 256.315 82.621 257.179 82.6192C258.005 82.6192 258.544 82.3044 258.799 81.6693C259.054 81.0342 259.182 79.5504 259.182 77.2095V71.8505H270.287V73.5113C270.287 77.9233 269.975 81.0511 269.35 82.8946C268.726 84.738 267.347 86.3558 265.214 87.7478C263.077 89.1322 260.443 89.8254 257.312 89.8273C254.06 89.8273 251.379 89.24 249.268 88.0653C247.158 86.8907 245.759 85.2626 245.071 83.1812C244.387 81.1035 244.044 77.9758 244.042 73.798V61.3488C244.003 59.0413 244.11 56.7336 244.361 54.4386C244.6 52.8319 245.248 51.3081 246.245 50.0041C247.359 48.5292 248.861 47.3706 250.593 46.6487C251.972 46.0537 253.44 45.6743 254.941 45.5246C255.623 45.4518 256.308 45.4152 256.993 45.415C260.265 45.415 262.965 46.0464 265.092 47.3091C267.22 48.5718 268.613 50.1446 269.272 52.0274C269.784 53.4719 270.1 55.5327 270.22 58.2098C270.255 59.022 270.275 59.896 270.275 60.8149V64.8644L259.179 64.8756Z" fill="#366694"/>
        <path d="M172.899 46.4801V54.9304H166.165V88.7538H154.826V54.9304H148.121V46.4717L172.899 46.4801Z" fill="#366694"/>
        <path d="M175.893 46.4717H194.801V54.9219H187.226V62.9394H194.311V70.9822H187.226V80.2783H195.549V88.737H175.893V46.4717Z" fill="#366694"/>
        <path d="M210.81 46.4717V80.28H217.703V88.737H199.471V46.4717H210.81Z" fill="#366694"/>
        <path d="M220.908 46.4888H239.816V54.939H232.259V62.9565H239.332V70.9993H232.259V80.2954H240.582V88.754H220.908V46.4888Z" fill="#366694"/>
        <path d="M145.005 46.4805V88.7542H135.094L135.08 60.2139L131.135 88.7542H124.105L119.943 60.8687V88.7542H110.018V46.4805H124.691C125.126 49.0209 125.574 52.0184 126.036 55.4731L127.647 66.2249L130.256 46.4861L145.005 46.4805Z" fill="#366694"/>
        <path d="M94.9639 57.3418C94.9639 55.3746 94.8518 54.1176 94.6276 53.5705C94.4044 53.0085 93.9406 52.7471 93.2421 52.7471C92.9754 52.7348 92.71 52.7897 92.4718 52.9064C92.2335 53.0231 92.0305 53.1977 91.8826 53.4131C91.5657 53.8571 91.4082 55.1686 91.4101 57.3474V77.089C91.4101 79.5432 91.5135 81.057 91.7202 81.6303C91.927 82.2036 92.4101 82.4911 93.1696 82.493C93.9406 82.493 94.4363 82.1614 94.6508 81.501C94.8653 80.8406 94.9726 79.2528 94.9726 76.7743L94.9639 57.3418ZM106.304 71.2298C106.304 75.4788 106.2 78.4866 105.993 80.2533C105.787 82.0458 105.091 83.7523 103.975 85.1961C102.86 86.6399 101.367 87.7683 99.6511 88.4647C97.8017 89.2496 95.647 89.6412 93.187 89.6393C91.0365 89.6718 88.9004 89.2946 86.8997 88.5293C85.1649 87.8559 83.6472 86.7454 82.5036 85.3126C81.36 83.8798 80.632 82.1768 80.3951 80.3797C80.1844 78.6355 80.0791 75.5855 80.0791 71.2298V64.0019C80.0791 59.7529 80.1825 56.7451 80.3893 54.9784C80.5971 53.1893 81.2936 51.4863 82.407 50.0453C83.5204 48.6043 85.0103 47.4774 86.7229 46.7811C88.5723 45.9961 90.727 45.6045 93.187 45.6064C95.3384 45.574 97.4755 45.9511 99.4771 46.7164C101.212 47.3898 102.73 48.5004 103.873 49.9332C105.017 51.366 105.745 53.069 105.982 54.866C106.196 56.6083 106.304 59.6555 106.304 64.0076V71.2298Z" fill="#366694"/>
    </g>
    <path d="M69.8353 57.3584H75.8073C75.3214 55.4788 74.6644 53.6473 73.8444 51.8865C73.8118 51.8108 73.7756 51.7315 73.7358 51.6558V51.627C73.6633 51.4612 73.5873 51.2954 73.5076 51.1296L73.4895 51.0899C73.4388 50.9782 73.3917 50.87 73.3374 50.7583L73.1961 50.4519C73.1898 50.4347 73.1825 50.4179 73.1744 50.4014C73.1092 50.2644 73.0476 50.1239 72.9825 49.9869L72.9607 49.94C72.9173 49.8427 72.8702 49.7418 72.8231 49.6444C72.776 49.5471 72.6964 49.3597 72.6275 49.2155C72.5913 49.1362 72.5551 49.0533 72.5153 48.974C72.4973 48.9243 72.4755 48.8761 72.4501 48.8298C72.4175 48.7505 72.3777 48.6712 72.3414 48.5919C72.3279 48.5561 72.3122 48.5212 72.2944 48.4874L72.1133 48.098C72.0662 47.9863 72.0155 47.8782 71.9612 47.7664C71.8887 47.597 71.8091 47.4276 71.7294 47.2582L71.6316 47.0491L71.6062 46.995L71.4215 46.5877C71.3491 46.4291 71.2767 46.2669 71.2006 46.1119C71.1753 46.0506 71.1499 45.9929 71.1209 45.9353C71.092 45.8776 71.0884 45.8632 71.0739 45.8307L70.8892 45.4342C70.8312 45.3008 70.7696 45.1675 70.7081 45.0341C70.6465 44.9007 70.5849 44.7601 70.5198 44.6268C70.4546 44.4934 70.4075 44.3781 70.3495 44.2663L70.1866 43.9058C70.1178 43.7508 70.0489 43.6031 69.9801 43.4517C69.9548 43.394 69.9258 43.3399 69.9005 43.2822C69.8751 43.2246 69.8389 43.1417 69.8063 43.0768L69.6868 42.8244C69.6809 42.8025 69.6711 42.7817 69.6578 42.7632C69.5962 42.6154 69.531 42.4712 69.4622 42.327L69.3753 42.1432C69.3463 42.0747 69.3174 42.0062 69.2812 41.9377C69.2449 41.8692 69.2305 41.8224 69.2015 41.7647C69.1901 41.731 69.1755 41.6984 69.158 41.6674C69.0783 41.4871 68.9951 41.3069 68.9118 41.1339L68.8466 40.9897C68.8212 40.9284 68.7922 40.8635 68.7596 40.8022C68.7089 40.6833 68.6546 40.5679 68.6003 40.4418C68.546 40.3156 68.459 40.1282 68.383 39.9696C68.354 39.9011 68.3214 39.8326 68.2888 39.7641C68.2807 39.7418 68.271 39.7202 68.2599 39.6992L68.086 39.3171C68.0245 39.1838 67.9665 39.0504 67.9013 38.917L67.6949 38.47L67.6297 38.3331C67.608 38.2754 67.579 38.2177 67.5536 38.16C67.4812 37.9978 67.4052 37.8356 67.3291 37.6734L67.282 37.5725L67.206 37.4067C67.1372 37.2517 67.0647 37.0931 66.9923 36.9381C66.9742 36.8948 66.9524 36.8552 66.9343 36.8119C66.9162 36.7686 66.8474 36.6172 66.8003 36.5235C66.8003 36.4911 66.7714 36.4586 66.7533 36.4262C66.7328 36.3717 66.7086 36.3187 66.6808 36.2676C66.612 36.1126 66.5432 35.9612 66.4708 35.8098L66.449 35.7557C66.3983 35.644 66.3476 35.5323 66.2933 35.4241C66.2762 35.3811 66.2569 35.339 66.2354 35.298C66.21 35.2331 66.1774 35.1682 66.1484 35.0997C66.076 34.9339 65.9963 34.7717 65.9203 34.6059L65.8877 34.5374C65.8479 34.4509 65.8116 34.3679 65.7718 34.285C65.732 34.2021 65.6632 34.0471 65.6052 33.9246C65.5473 33.802 65.4676 33.6074 65.3915 33.4524C65.378 33.4266 65.3659 33.4002 65.3553 33.3731C65.33 33.3226 65.3082 33.2685 65.2793 33.2145C65.1887 33.0018 65.0909 32.7891 64.9895 32.58C64.9708 32.5319 64.949 32.4849 64.9243 32.4395C64.8591 32.2881 64.7903 32.1403 64.7179 31.9889C64.6455 31.8375 64.5912 31.7113 64.526 31.5744L64.4934 31.4987C64.4572 31.4194 64.4246 31.3437 64.3847 31.268C64.3195 31.1166 64.2507 30.9688 64.1819 30.821L64.0189 30.4605C63.9574 30.3199 63.8922 30.183 63.827 30.046L63.7944 29.9703L63.6531 29.6603L63.6206 29.5918C63.5771 29.4909 63.53 29.3899 63.4829 29.2926C63.4359 29.1953 63.3562 29.0151 63.291 28.8781L63.2693 28.8312C63.2222 28.7159 63.1678 28.6041 63.1135 28.4924C63.1149 28.4792 63.1149 28.4659 63.1135 28.4527C63.0628 28.3338 63.0085 28.2184 62.9542 28.0923V28.0598L62.8347 27.8039C62.7659 27.6489 62.697 27.4939 62.6246 27.3425C62.6233 27.3293 62.6233 27.316 62.6246 27.3028C62.5848 27.2127 62.5413 27.119 62.4942 27.0253C62.4471 26.9316 62.3783 26.7658 62.3168 26.636L62.1212 26.207L61.9256 25.7853C61.8894 25.6952 61.846 25.6087 61.8061 25.5222C61.7663 25.4356 61.6975 25.2806 61.6395 25.1617C61.5816 25.0427 61.4947 24.8409 61.4186 24.6787L61.2448 24.2966V24.2749C61.1904 24.156 61.1361 24.037 61.0782 23.9145V23.8856C61.0347 23.7847 60.9876 23.6802 60.9369 23.5792C60.9325 23.5642 60.9264 23.5497 60.9188 23.536C60.8645 23.417 60.8102 23.2945 60.7558 23.1755V23.1503C60.7088 23.0458 60.6617 22.9412 60.611 22.8367C60.5603 22.7322 60.4806 22.5483 60.4118 22.4041C60.3575 22.2744 60.2995 22.1518 60.238 22.022L60.0967 21.7192C60.0315 21.5715 59.9663 21.4201 59.8939 21.2759L59.7201 20.9154L59.5788 20.609C59.5136 20.4576 59.4448 20.3062 59.3724 20.1548C59.3743 20.1465 59.3743 20.1379 59.3724 20.1296C59.3217 20.0106 59.2674 19.8953 59.213 19.7691C59.1587 19.643 59.1008 19.5132 59.0392 19.387C58.9849 19.2681 58.9305 19.1491 58.8726 19.0266C58.811 18.886 58.7495 18.7526 58.6843 18.6156L58.5648 18.3597C58.4959 18.2047 58.4271 18.0497 58.3547 17.8947C58.3004 17.7722 58.2424 17.6496 58.1881 17.5343V17.5126C58.1302 17.3781 58.0686 17.2447 58.0034 17.1125C57.9418 16.9719 57.8767 16.835 57.8115 16.698L57.6811 16.4132C57.6304 16.2979 57.5797 16.1861 57.5254 16.0744V16.0383C57.4602 15.8941 57.3986 15.7536 57.3298 15.6166C57.261 15.4796 57.2429 15.4219 57.1958 15.3246L57.1741 15.2777C57.1125 15.1336 57.0473 14.9894 56.9749 14.8452C56.9024 14.701 56.8626 14.5965 56.8046 14.4847C56.7467 14.373 56.7069 14.2648 56.6562 14.1603C56.5946 14.0161 56.5294 13.8755 56.4606 13.735C55.34 11.2673 53.5247 9.17578 51.2346 7.71368C48.9444 6.25158 46.2775 5.48155 43.5568 5.4968C40.836 5.51206 38.178 6.31195 35.9046 7.79964C33.6311 9.28733 31.8396 11.399 30.747 13.8791C30.6963 13.9837 30.6493 14.0846 30.6058 14.1927C30.595 14.2065 30.5875 14.2225 30.5841 14.2396C30.5297 14.3477 30.479 14.4595 30.4283 14.5748L30.4066 14.6253C30.3559 14.7298 30.3088 14.8344 30.2617 14.9425L30.0662 15.3715V15.3967C30.0155 15.5048 29.9648 15.613 29.9177 15.7247C29.8706 15.8365 29.7801 16.0203 29.7149 16.1681C29.6642 16.2726 29.6171 16.3772 29.57 16.4817C29.5229 16.5862 29.4505 16.7376 29.3926 16.8674C29.3346 16.9972 29.2911 17.0873 29.2441 17.199C29.1644 17.3684 29.0883 17.5343 29.0159 17.7037C28.9652 17.8118 28.9145 17.9236 28.8674 18.0317C28.8203 18.1398 28.7588 18.2624 28.7081 18.3922C28.6574 18.5219 28.5958 18.6373 28.5415 18.7526C28.4871 18.868 28.4111 19.0338 28.3495 19.178C28.288 19.3222 28.2336 19.4195 28.1829 19.5384C28.1322 19.6574 28.0381 19.8484 27.9693 20.007V20.0287C27.9294 20.1152 27.8896 20.1981 27.8534 20.2846C27.8171 20.3711 27.7266 20.5586 27.6687 20.6955C27.6107 20.8325 27.5528 20.9443 27.4948 21.056C27.4369 21.1677 27.3753 21.3119 27.321 21.4417C27.2667 21.5715 27.2051 21.6868 27.1544 21.8022C27.1037 21.9175 27.0385 22.0473 26.9842 22.1626C26.9298 22.278 26.8429 22.469 26.7777 22.6204C26.7126 22.7718 26.68 22.8331 26.6329 22.9376L26.4699 23.2981C26.4011 23.4459 26.3323 23.5937 26.2671 23.7415C26.2019 23.8892 26.1693 23.9541 26.1222 24.0623C26.0751 24.1704 25.9774 24.3687 25.9122 24.5273C25.847 24.6859 25.8035 24.7652 25.7492 24.8877C25.6949 25.0103 25.6478 25.1004 25.6043 25.2085C25.5609 25.3167 25.4776 25.4789 25.4196 25.6159C25.3617 25.7528 25.3074 25.8538 25.253 25.9763C25.1987 26.0989 25.1009 26.3116 25.0249 26.481L24.9923 26.5495C24.9639 26.607 24.9385 26.666 24.9162 26.7261C24.8547 26.8523 24.7967 26.982 24.7388 27.1118C24.6808 27.2416 24.6156 27.3785 24.5577 27.5119C24.4997 27.6453 24.402 27.8399 24.3295 28.0058L24.2933 28.0923C24.2607 28.1571 24.2317 28.222 24.2028 28.2905C24.1412 28.4275 24.0796 28.5609 24.0217 28.6978C23.9637 28.8348 23.9167 28.9177 23.8696 29.0295C23.8225 29.1412 23.7537 29.2746 23.6994 29.3899C23.645 29.5053 23.5726 29.6639 23.511 29.8009C23.4495 29.9378 23.377 30.0928 23.3118 30.2442L23.2865 30.2947L23.1778 30.5398C23.1163 30.666 23.0583 30.7921 23.0004 30.9219C23.0017 30.9315 23.0017 30.9412 23.0004 30.9507C22.9352 31.0913 22.87 31.2355 22.8084 31.3797C22.7469 31.5239 22.6853 31.6428 22.6274 31.7762C22.5694 31.9096 22.5368 31.9709 22.4934 32.0718V32.1042C22.439 32.2196 22.3847 32.3385 22.334 32.4647C22.2579 32.6269 22.1819 32.7963 22.1095 32.9621L21.9646 33.2793C21.9139 33.3839 21.8668 33.4884 21.8197 33.593C21.8153 33.608 21.8092 33.6225 21.8016 33.6362C21.7401 33.766 21.6821 33.8957 21.6242 34.0255L21.4721 34.3607C21.4177 34.4761 21.3634 34.595 21.3127 34.7212C21.2403 34.8762 21.1678 35.0348 21.099 35.1934V35.2186C21.0483 35.3268 20.9976 35.4349 20.9505 35.5467C20.9035 35.6584 20.8491 35.7629 20.8021 35.8747C20.7441 35.9973 20.6898 36.1198 20.6355 36.2352C20.5594 36.3974 20.487 36.5596 20.4145 36.7218C20.3747 36.8119 20.3312 36.902 20.2914 36.9957L19.7735 37.4679V37.5004L19.6685 37.7347L19.6468 37.7852C19.5852 37.9113 19.5272 38.0411 19.4729 38.1672C19.4077 38.315 19.3389 38.4628 19.2737 38.6142C19.2194 38.7296 19.1651 38.8449 19.1144 38.9747C19.113 38.9855 19.113 38.9964 19.1144 39.0071C19.0709 39.0972 19.0311 39.1874 18.9912 39.2775V39.2991L18.8174 39.6812V39.7064L18.6544 40.0669V40.1029C18.6001 40.2183 18.5458 40.3336 18.4951 40.4634V40.4958C18.4408 40.6112 18.3864 40.7301 18.3357 40.8563C18.2778 40.9789 18.2198 41.105 18.1655 41.2168C18.1513 41.2422 18.1392 41.2687 18.1293 41.2961L17.988 41.5989C17.9301 41.725 17.8722 41.8476 17.8178 41.9593L17.6549 42.3198L17.481 42.7055C17.4231 42.8317 17.3651 42.9542 17.3108 43.066C17.2529 43.1885 17.1985 43.3111 17.1442 43.4264V43.4481L16.9812 43.8085C16.9701 43.8295 16.9604 43.8511 16.9523 43.8734C16.9016 43.9815 16.8545 44.0861 16.8038 44.1906C16.7956 44.2129 16.786 44.2346 16.7748 44.2555L16.6336 44.5691L16.4597 44.9512L16.3112 45.272L16.2859 45.3297C16.2171 45.4739 16.1483 45.6217 16.0867 45.7694L16.0505 45.8415C16.0143 45.9244 15.9744 46.011 15.9382 46.0975C15.9276 46.1131 15.9191 46.1301 15.9129 46.1479L15.7644 46.4796C15.7581 46.4974 15.7496 46.5144 15.739 46.53C15.6883 46.6418 15.6412 46.7535 15.5869 46.8653L15.5652 46.9121L15.4131 47.2474L15.2429 47.6078C15.2384 47.6228 15.2323 47.6373 15.2247 47.6511C15.174 47.7544 15.127 47.8589 15.0835 47.9647C15.0823 47.973 15.0823 47.9815 15.0835 47.9899C15.0256 48.1197 14.964 48.2458 14.9097 48.3756C14.9029 48.3885 14.8969 48.4017 14.8916 48.4153C14.859 48.4801 14.83 48.5486 14.801 48.6171C14.7177 48.7937 14.638 48.9776 14.562 49.1398C14.5626 49.1518 14.5626 49.1638 14.562 49.1758L14.4099 49.5147L14.3882 49.5579L14.236 49.8968L14.2143 49.94C14.1564 50.0662 14.0984 50.196 14.0441 50.3221C14.0342 50.3394 14.0257 50.3575 14.0187 50.3762L13.8811 50.679V50.7042C13.8377 50.7979 13.7942 50.8953 13.7471 50.9926C13.7471 51.0142 13.7471 51.0358 13.7182 51.0611L13.566 51.3927L13.5443 51.4432C13.4827 51.5729 13.4248 51.6991 13.3705 51.8289V51.8469C11.4271 56.0612 10.4239 60.6444 10.4297 65.2814C10.4297 83.3046 25.34 97.9143 43.7487 97.9143C59.2963 97.9143 72.3595 87.4608 76.021 73.3414L69.8353 57.3584Z" fill="url(#paint0_linear_129_9730)"/>
    <g filter="url(#filter3_ddd_129_9730)">
        <path d="M43.5313 82.6739C33.8362 82.6739 25.9809 74.9708 25.9809 65.4726V65.4005C25.9809 65.2671 25.9809 65.1373 25.9809 65.0076C25.9809 64.6471 26.0099 64.3119 26.0389 63.9658C26.0389 63.8397 26.0606 63.7027 26.0751 63.5729C26.1617 62.82 26.2972 62.0735 26.4807 61.338C26.5205 61.183 26.5568 61.0352 26.6038 60.8911C26.9104 59.794 27.329 58.7311 27.8533 57.719C27.9221 57.5928 27.9873 57.4558 28.0597 57.3297C28.2046 57.0629 28.3603 56.7998 28.5197 56.5402C28.603 56.4069 28.6899 56.2771 28.7732 56.1473C30.0937 54.1624 31.8081 52.4672 33.8109 51.1657C33.9413 51.0792 34.0825 50.9963 34.2129 50.9134V46.3788C34.2149 46.3584 34.2149 46.3379 34.2129 46.3175C34.2056 46.2964 34.1946 46.2769 34.1803 46.2598C34.1935 46.277 34.2033 46.2966 34.2093 46.3175C34.213 46.3377 34.213 46.3585 34.2093 46.3788V50.8954C34.4085 50.7656 34.6258 50.643 34.8358 50.5349L35.2378 50.3114C35.4442 50.2033 35.6579 50.0987 35.8716 50.0014C36.002 49.9365 36.136 49.8789 36.2736 49.8176C37.3878 49.3204 38.5504 48.9387 39.7431 48.6785L40.1487 48.5992C40.4747 48.5379 40.797 48.4875 41.1266 48.4442L41.5286 48.3901C42.1817 48.3194 42.8381 48.2833 43.4951 48.282H43.5241C43.6508 48.282 43.774 48.282 43.8863 48.282H44.1724C44.3064 48.282 44.444 48.282 44.5744 48.282L44.8641 48.3036C44.9981 48.3036 45.1285 48.3289 45.2661 48.3433C45.6645 48.3793 46.0592 48.4298 46.454 48.4947L46.8524 48.5668L47.1421 48.6136L47.5369 48.711L47.8266 48.783C47.9606 48.8155 48.1018 48.8443 48.2322 48.8804C50.4676 49.4908 52.5598 50.5345 54.389 51.9515C54.523 52.0561 54.657 52.1606 54.7874 52.2687C55.065 52.4946 55.333 52.7289 55.5914 52.9716L55.9934 53.3609C56.3954 53.7611 56.7829 54.172 57.1414 54.6082C57.279 54.7776 57.4094 54.947 57.5434 55.12C57.8887 55.5718 58.2146 56.0392 58.5212 56.5222C58.6589 56.7493 58.7892 56.9764 58.9196 57.2107C58.9522 57.2684 58.9921 57.3261 59.0247 57.3837H75.7964C72.1313 43.2607 59.0681 32.8145 43.5168 32.8145C40.1243 32.8111 36.7507 33.3178 33.5103 34.3176L33.1083 34.451L32.4745 34.66L32.0725 34.7934C31.8588 34.8691 31.6524 34.9592 31.4387 35.0349L31.0403 35.1935C27.2724 36.6899 23.8084 38.8541 20.8165 41.581C20.6752 41.7107 20.534 41.8405 20.4 41.9739C19.7409 42.5963 19.1083 43.2451 18.5023 43.9204L18.1401 44.3169C17.3533 45.2122 16.6193 46.1522 15.9418 47.1321C15.8657 47.2403 15.7933 47.3484 15.7209 47.4601C14.5187 49.2543 13.4996 51.1634 12.6787 53.1591C12.5411 53.4871 12.4034 53.8187 12.2803 54.154C11.9761 54.9578 11.7153 55.7725 11.4727 56.6015C11.3894 56.9007 11.3061 57.1963 11.2264 57.4991C11.2243 57.5122 11.2243 57.5256 11.2264 57.5387C11.1866 57.6829 11.1576 57.8307 11.125 57.9785C10.8211 59.2299 10.5949 60.4987 10.4478 61.7778C10.4478 61.9436 10.4079 62.113 10.3898 62.2861C10.2884 63.335 10.2305 64.3948 10.2305 65.4726C10.2301 69.0581 10.8336 72.6184 12.0159 76.0053C12.1391 76.3658 12.2731 76.7263 12.4143 77.0867C12.6063 77.577 12.8091 78.06 13.0227 78.5286C13.1567 78.8206 13.2871 79.1125 13.4247 79.3973C14.2994 81.1981 15.3383 82.9151 16.5285 84.5267L16.9269 85.071C19.6852 88.6438 23.1453 91.6203 27.0964 93.8195L27.4984 94.0502C27.6505 94.1331 27.8062 94.2088 27.9583 94.2881C28.1104 94.3674 28.2263 94.4215 28.3567 94.4936C28.4871 94.5657 28.6646 94.6486 28.8203 94.7206L29.2187 94.9117C29.4504 95.0198 29.6786 95.1172 29.914 95.2217L30.316 95.4019C30.5876 95.5173 30.8629 95.6254 31.1345 95.7336C31.4061 95.8417 31.7031 95.957 31.9928 96.0616C32.6085 96.2815 33.235 96.4869 33.8652 96.6744L34.2672 96.7897C42.3195 99.0782 50.9389 98.3074 58.4524 94.6269C58.5901 94.562 58.7241 94.4863 58.8544 94.4179C59.0898 94.3025 59.3252 94.1836 59.557 94.0574L59.959 93.8303C60.1546 93.7222 60.3538 93.614 60.5421 93.4987L60.9477 93.2608C61.8314 92.7309 62.6789 92.1613 63.5046 91.5558L63.903 91.2566C64.0551 91.1448 64.2072 91.0259 64.3629 90.8961L64.7613 90.5753C64.9134 90.4491 65.0728 90.3266 65.2213 90.2148C65.3697 90.1031 65.4929 89.9841 65.6269 89.8544C70.5968 85.5494 74.1461 79.8521 75.8109 73.5073H59.0355C57.5226 76.2854 55.2827 78.6042 52.5531 80.218C49.8236 81.8318 46.7061 82.6805 43.5313 82.6739ZM63.0193 80.695C63.0073 80.6801 62.9987 80.6629 62.994 80.6445C63.0003 80.6623 63.0088 80.6792 63.0193 80.695Z" fill="#366694"/>
    </g>
    <path d="M61.7685 90.301C61.8014 90.2643 61.8195 90.2168 61.8192 90.1676V84.3029C61.8203 84.2598 61.8062 84.2177 61.7793 84.1839L60.4285 82.414V77.1801C60.4285 77.1265 60.4071 77.0752 60.3691 77.0373C60.331 76.9995 60.2794 76.9782 60.2256 76.9782C60.1719 76.9782 60.1203 76.9995 60.0822 77.0373C60.0442 77.0752 60.0228 77.1265 60.0228 77.1801V82.4789C60.0241 82.5222 60.0394 82.5639 60.0663 82.5979L61.4172 84.3677V90.0955C61.3194 90.1965 59.6063 92.0312 59.6063 92.0312C59.5892 92.0488 59.5759 92.0698 59.5672 92.0927C59.5585 92.1156 59.5545 92.1401 59.5556 92.1646V94.0859C59.6896 94.0138 59.82 93.9345 59.9576 93.8552V92.2583L61.7685 90.319" fill="white"/>
    <path d="M62.7553 91.3284C62.7726 91.3109 62.7861 91.29 62.7948 91.267C62.8036 91.244 62.8074 91.2195 62.8061 91.195V83.5027C62.8047 83.4617 62.7922 83.4218 62.7698 83.3873L61.4117 81.6138V76.3979C61.4052 76.3495 61.3812 76.305 61.3442 76.2729C61.3073 76.2407 61.2598 76.223 61.2107 76.223C61.1616 76.223 61.1142 76.2407 61.0772 76.2729C61.0403 76.305 61.0163 76.3495 61.0097 76.3979V81.6931C61.0102 81.7359 61.0242 81.7775 61.0496 81.8121L62.4041 83.582V91.1337L60.5932 93.0694C60.5574 93.1047 60.5366 93.1525 60.5353 93.2028V93.5416L60.9409 93.3037V93.2821L62.7517 91.3428" fill="white"/>
    <path d="M63.8598 82.7061C63.8598 82.7061 62.6067 81.0371 62.5306 80.9398V75.7058C62.5241 75.6574 62.5001 75.613 62.4632 75.5808C62.4262 75.5486 62.3788 75.5309 62.3297 75.5309C62.2805 75.5309 62.2331 75.5486 62.1961 75.5808C62.1592 75.613 62.1352 75.6574 62.1286 75.7058V81.0047C62.1296 81.0474 62.1435 81.0889 62.1685 81.1236L63.5012 82.8899V91.5843C63.6316 91.4834 63.7729 91.3824 63.8996 91.2815V82.825C63.9005 82.782 63.8864 82.74 63.8598 82.7061Z" fill="white"/>
    <path d="M64.7248 82.2879C64.7248 82.2879 63.4717 80.6153 63.3956 80.518V75.2841C63.3891 75.2356 63.3651 75.1912 63.3281 75.159C63.2912 75.1269 63.2437 75.1091 63.1946 75.1091C63.1455 75.1091 63.0981 75.1269 63.0611 75.159C63.0242 75.1912 63.0002 75.2356 62.9936 75.2841V80.5829C62.9944 80.624 63.007 80.664 63.0299 80.6982C63.0299 80.6982 64.2938 82.3744 64.3626 82.4717V90.9282C64.5002 90.8201 64.6342 90.712 64.761 90.6038V82.4069C64.7641 82.3641 64.7512 82.3217 64.7248 82.2879Z" fill="white"/>
    <path d="M65.5865 81.8697C65.5865 81.8697 64.3262 80.1972 64.2537 80.0962V74.8623C64.2472 74.8139 64.2232 74.7694 64.1862 74.7373C64.1493 74.7051 64.1018 74.6873 64.0527 74.6873C64.0036 74.6873 63.9562 74.7051 63.9192 74.7373C63.8822 74.7694 63.8583 74.8139 63.8517 74.8623V80.1611C63.8522 80.2028 63.8662 80.2433 63.8916 80.2765C63.8916 80.2765 65.1519 81.949 65.2207 82.05V90.2289C65.3583 90.1171 65.4887 89.9982 65.6263 89.8684V81.9851C65.6246 81.9436 65.6108 81.9035 65.5865 81.8697Z" fill="white"/>
    <path d="M60.0946 41.4327L58.8053 39.9116C58.7687 39.8723 58.7184 39.8482 58.6647 39.8442C58.611 39.8402 58.5577 39.8565 58.5156 39.89C58.4949 39.9087 58.4784 39.9315 58.4672 39.9569C58.456 39.9824 58.4503 40.0099 58.4504 40.0377C58.4484 40.0615 58.4516 40.0853 58.4597 40.1077C58.4679 40.1301 58.4807 40.1505 58.4975 40.1675C58.4975 40.1675 59.6528 41.5301 59.7397 41.6274V57.4013H60.1417V41.5661C60.141 41.5199 60.1244 41.4754 60.0946 41.44" fill="white"/>
    <path d="M58.8859 41.4329L57.5858 39.9189C57.5509 39.8793 57.5017 39.8549 57.449 39.8509C57.3962 39.8468 57.3439 39.8635 57.3033 39.8973C57.2816 39.9154 57.2642 39.938 57.2523 39.9635C57.2404 39.9891 57.2343 40.0169 57.2345 40.0451C57.2341 40.0926 57.2508 40.1386 57.2816 40.1749L58.5238 41.6347V56.5472C58.665 56.7706 58.7954 57.0013 58.9258 57.232V41.5662C58.9251 41.5201 58.9084 41.4755 58.8787 41.4401" fill="white"/>
    <path d="M57.562 41.9879V55.1305C57.428 54.9574 57.2976 54.788 57.16 54.6186V42.06L52.7235 36.6783C52.5062 36.7699 52.2624 36.7783 52.0393 36.7018C51.8161 36.6253 51.6292 36.4693 51.5147 36.2639C51.4001 36.0585 51.3659 35.8182 51.4187 35.5892C51.4715 35.3602 51.6075 35.1588 51.8006 35.0236C51.9937 34.8885 52.2301 34.8292 52.4645 34.8572C52.6989 34.8851 52.9145 34.9984 53.07 35.1752C53.2255 35.352 53.3098 35.5797 53.3066 35.8146C53.3035 36.0495 53.2132 36.275 53.0531 36.4476L57.5149 41.8546C57.5465 41.8917 57.5633 41.9392 57.562 41.9879Z" fill="white"/>
    <path d="M55.9611 43.7218C55.9611 43.7218 51.0103 37.8065 50.9234 37.6984V37.0352C50.9224 36.9822 50.9006 36.9318 50.8627 36.8947C50.8248 36.8577 50.7737 36.8369 50.7206 36.8369C50.6674 36.8369 50.6164 36.8577 50.5784 36.8947C50.5405 36.9318 50.5187 36.9822 50.5178 37.0352V37.7561C50.5208 37.8007 50.5372 37.8434 50.5648 37.8786L55.6025 43.902V52.9785L56.0045 53.3678V43.8443C56.0046 43.7997 55.9892 43.7565 55.9611 43.7218Z" fill="white"/>
    <path d="M54.7501 43.9741C54.7501 43.9741 49.8029 38.0589 49.716 37.9508V37.0172C49.7141 36.9643 49.6914 36.9142 49.6528 36.8778C49.6142 36.8414 49.5628 36.8215 49.5096 36.8225C49.458 36.8234 49.4088 36.8442 49.3723 36.8805C49.3358 36.9169 49.3149 36.9658 49.314 37.0172V38.0193C49.3152 38.0658 49.3303 38.111 49.3575 38.149L54.3988 44.1688V51.9728C54.5328 52.0774 54.6632 52.1819 54.7972 52.2936V44.1003C54.7974 44.0539 54.7806 44.0091 54.7501 43.9741Z" fill="white"/>
    <path d="M47.5279 39.8215C47.5502 39.7886 47.5616 39.7495 47.5605 39.7098V34.584C47.5596 34.532 47.5382 34.4825 47.5009 34.4461C47.4637 34.4097 47.4136 34.3893 47.3613 34.3893C47.3094 34.3902 47.2598 34.4109 47.2228 34.4471C47.1857 34.4833 47.164 34.5323 47.1622 34.584V39.6629C47.1042 39.7566 46.5066 40.629 46.5066 40.629C46.4867 40.663 46.4755 40.7013 46.474 40.7407V48.5339L46.8724 48.6024V40.784C46.9376 40.6938 47.5279 39.8215 47.5279 39.8215Z" fill="white"/>
    <path d="M48.2214 40.4956C48.2452 40.4632 48.2579 40.424 48.2576 40.3839V35.2437C48.2558 35.1914 48.2336 35.1419 48.1957 35.1056C48.1579 35.0692 48.1074 35.049 48.0548 35.049C48.0287 35.0485 48.0027 35.0532 47.9783 35.0627C47.954 35.0722 47.9317 35.0864 47.9129 35.1045C47.8941 35.1226 47.879 35.1442 47.8685 35.1681C47.8581 35.1919 47.8525 35.2176 47.852 35.2437V40.3262C47.7941 40.4163 47.2001 41.2886 47.2001 41.2886C47.178 41.3206 47.1655 41.3581 47.1639 41.3968V48.6421C47.2979 48.6674 47.4319 48.707 47.5623 48.7394V41.4581C47.6275 41.3679 48.2214 40.4992 48.2214 40.4992" fill="white"/>
    <path d="M48.8946 41.1696C48.9161 41.139 48.9275 41.1024 48.9272 41.0651V35.9212C48.9272 35.8686 48.9062 35.8182 48.8689 35.781C48.8315 35.7439 48.7808 35.723 48.728 35.723C48.6752 35.723 48.6245 35.7439 48.5872 35.781C48.5498 35.8182 48.5288 35.8686 48.5288 35.9212V41.0038C48.4636 41.0903 47.8733 41.9626 47.8733 41.9626C47.8511 41.9958 47.8386 42.0345 47.8371 42.0744V48.8042C47.9711 48.8367 48.1087 48.8655 48.2427 48.9052V42.132C48.3007 42.0419 48.8946 41.1696 48.8946 41.1696Z" fill="white"/>
    <path d="M45.2501 40.6146L44.5946 39.6485V34.584C44.5941 34.558 44.5885 34.5323 44.5781 34.5084C44.5676 34.4845 44.5525 34.4629 44.5337 34.4449C44.5149 34.4268 44.4927 34.4126 44.4683 34.4031C44.444 34.3935 44.418 34.3889 44.3918 34.3894C44.3386 34.3884 44.2872 34.4082 44.2486 34.4446C44.21 34.4811 44.1873 34.5311 44.1854 34.584V39.7242C44.1891 39.7637 44.2014 39.8018 44.2216 39.836C44.2216 39.836 44.8192 40.7083 44.8771 40.7984V48.3393C45.0147 48.3393 45.1451 48.3646 45.2791 48.379V40.7119C45.2795 40.6723 45.2682 40.6334 45.2465 40.6002" fill="white"/>
    <path d="M44.5469 41.2887C44.5469 41.2887 43.9529 40.4164 43.895 40.3262V35.2437C43.895 35.1902 43.8736 35.1388 43.8356 35.101C43.7975 35.0631 43.7459 35.0418 43.6922 35.0418C43.6384 35.0418 43.5868 35.0631 43.5487 35.101C43.5107 35.1388 43.4893 35.1902 43.4893 35.2437V40.3839C43.4908 40.4238 43.5034 40.4625 43.5256 40.4957C43.5256 40.4957 44.1231 41.3644 44.1774 41.4545V48.3033H44.5831V41.3968C44.5833 41.3578 44.5706 41.3198 44.5469 41.2887Z" fill="white"/>
    <path d="M43.872 41.9627L43.2201 41.0038V35.9213C43.2192 35.8684 43.1974 35.818 43.1595 35.7809C43.1215 35.7438 43.0705 35.723 43.0173 35.723C42.9638 35.723 42.9124 35.7437 42.8739 35.7806C42.8353 35.8176 42.8128 35.8681 42.8109 35.9213V41.0723C42.8131 41.1115 42.827 41.1491 42.8507 41.1805C42.8507 41.1805 43.4447 42.0528 43.5026 42.1429V48.2708H43.8938V42.0708C43.8935 42.0319 43.8808 41.994 43.8575 41.9627" fill="white"/>
    <path d="M41.5054 41.7933L40.4732 40.1027C40.4454 40.0577 40.4011 40.0254 40.3496 40.0125C40.2982 39.9997 40.2437 40.0075 40.198 40.0342C40.1683 40.0525 40.1438 40.0779 40.1267 40.1082C40.1096 40.1384 40.1005 40.1725 40.1002 40.2072C40.1008 40.2412 40.1095 40.2745 40.1255 40.3045C40.1255 40.3045 41.0744 41.8617 41.136 41.9482V48.4366L41.538 48.3861V41.8978C41.5382 41.8615 41.5268 41.8262 41.5054 41.7969" fill="white"/>
    <path d="M40.1256 45.261L38.0577 42.0529C38.0287 42.0081 37.9831 41.9766 37.9309 41.9651C37.8787 41.9536 37.824 41.9631 37.7788 41.9916C37.7508 42.0093 37.7278 42.0338 37.712 42.0628C37.6962 42.0918 37.688 42.1244 37.6883 42.1574C37.6871 42.1943 37.6972 42.2308 37.7172 42.2619C37.7172 42.2619 39.6983 45.3295 39.7526 45.4232V48.6674L40.1582 48.5881V45.3439C40.158 45.3066 40.1467 45.2702 40.1256 45.2394" fill="white"/>
    <path d="M33.1618 41.8509L35.8816 45.434V49.9902C36.012 49.9254 36.146 49.8677 36.28 49.8064V45.3655C36.2791 45.3233 36.2666 45.2821 36.2438 45.2465L33.5276 41.6707V34.3389L33.1219 34.4722V41.7356C33.1219 41.7774 33.1359 41.818 33.1618 41.8509Z" fill="white"/>
    <path d="M32.129 42.3592L34.8452 45.9351V50.5274C34.9756 50.4517 35.1096 50.376 35.2472 50.3039V45.8738C35.2497 45.8305 35.2354 45.7879 35.2074 45.7548L32.4911 42.179V34.685C32.3571 34.7282 32.2195 34.7679 32.0891 34.8147V42.2439C32.0879 42.2859 32.1021 42.3269 32.129 42.3592Z" fill="white"/>
    <path d="M31.0956 42.8746L33.8118 46.454V51.1653C33.9422 51.0752 34.0835 50.9959 34.2138 50.9094V46.3783C34.2133 46.3355 34.1994 46.2939 34.174 46.2594C34.174 46.2594 31.5338 42.7845 31.4542 42.6836V35.0597L31.0558 35.2147V42.7485C31.0549 42.7915 31.069 42.8335 31.0956 42.8674" fill="white"/>
    <path d="M21.7332 64.3728V67.1268C21.9669 67.1726 22.175 67.3039 22.3162 67.4948C22.4575 67.6858 22.5218 67.9225 22.4963 68.1583C22.4708 68.3941 22.3575 68.6118 22.1787 68.7685C21.9999 68.9252 21.7685 69.0095 21.5303 69.0048C21.2921 69.0095 21.0608 68.9252 20.882 68.7685C20.7032 68.6118 20.5899 68.3941 20.5644 68.1583C20.5389 67.9225 20.6032 67.6858 20.7444 67.4948C20.8857 67.3039 21.0938 67.1726 21.3275 67.1268V64.2755C21.3277 64.2444 21.3353 64.2137 21.3498 64.1861C21.3643 64.1585 21.3852 64.1348 21.4108 64.1169L22.0989 63.6086C22.1348 63.5829 22.1779 63.569 22.2221 63.569H26.0791C26.0791 63.6988 26.0501 63.8357 26.0429 63.9619H22.28C22.1931 64.0196 21.8346 64.2863 21.7332 64.3728Z" fill="white"/>
    <path d="M23.2045 65.0469L22.4294 65.638C22.4056 65.6565 22.3861 65.6799 22.3723 65.7067C22.3585 65.7335 22.3508 65.763 22.3498 65.793V67.2349C22.3507 67.2881 22.3724 67.3389 22.4102 67.3766C22.448 67.4143 22.4991 67.4358 22.5526 67.4368C22.6061 67.4358 22.6571 67.4143 22.695 67.3766C22.7328 67.3389 22.7545 67.2881 22.7554 67.2349V65.8976L23.3928 65.4109H25.975C25.975 65.274 25.975 65.1442 25.975 65.0144H23.3276C23.2834 65.0144 23.2403 65.0283 23.2045 65.0541" fill="white"/>
    <path d="M22.8966 59.6868C22.8693 59.6871 22.8423 59.6931 22.8174 59.7042C22.7925 59.7154 22.7702 59.7315 22.7518 59.7517L22.0021 60.5699C21.9333 60.6024 21.0315 61.0061 20.9627 61.0421H18.768C18.7411 61.0409 18.7143 61.0454 18.6893 61.0553C18.6643 61.0653 18.6417 61.0805 18.6231 61.0998L17.6779 62.0262C17.6396 62.0632 17.6174 62.1137 17.6163 62.1668V65.8796C17.6163 65.9315 17.6368 65.9814 17.6734 66.0185C17.7099 66.0556 17.7597 66.0769 17.8119 66.0778C17.8385 66.0783 17.865 66.0736 17.8898 66.0638C17.9146 66.0541 17.9372 66.0397 17.9564 66.0213C17.9755 66.0028 17.9909 65.9809 18.0015 65.9565C18.0121 65.9322 18.0178 65.9061 18.0183 65.8796V62.2461L18.8368 61.4314H21.0098C21.0385 61.4365 21.0679 61.4365 21.0967 61.4314L22.2158 60.9268C22.2382 60.9153 22.259 60.9008 22.2773 60.8835C22.2773 60.8835 22.8894 60.2095 23.0017 60.1013H25.2797C25.1348 59.9571 25.008 59.8274 24.9175 59.7156L22.8966 59.6868Z" fill="white"/>
    <path d="M25.4273 59.885C25.4263 59.8321 25.4045 59.7817 25.3666 59.7446C25.3287 59.7075 25.2776 59.6867 25.2244 59.6867H24.8913C24.9963 59.7985 25.123 59.9282 25.2534 60.0724C25.297 60.063 25.3362 60.0395 25.365 60.0056C25.3938 59.9717 25.4106 59.9293 25.4128 59.885" fill="white"/>
    <path d="M16.8419 47.759L15.9727 47.1535C15.8966 47.2616 15.8242 47.3697 15.7481 47.4851C16.132 47.7518 16.4725 47.9825 16.5304 48.0222V84.5553C16.6608 84.7355 16.7912 84.9157 16.9288 85.0996V47.9213C16.9295 47.8891 16.9219 47.8572 16.9067 47.8288C16.8915 47.8004 16.8691 47.7764 16.8419 47.759Z" fill="white"/>
    <path d="M12.3664 63.7095L10.4505 61.781C10.4505 61.9468 10.4107 62.1162 10.3926 62.2856C11.1169 63.0066 11.9571 63.8645 12.0187 63.9257V76.0085C12.1418 76.369 12.2758 76.7294 12.4171 77.0899V63.8464C12.4176 63.7961 12.3995 63.7474 12.3664 63.7095Z" fill="white"/>
    <path d="M12.2932 55.6748L11.4856 56.6012C11.4023 56.9003 11.3154 57.1995 11.2393 57.5023C11.5037 57.1923 12.6445 55.8766 12.6445 55.8766C12.6759 55.8407 12.6927 55.7944 12.6916 55.7469V53.1587C12.554 53.4867 12.4163 53.822 12.2932 54.1536V55.6748Z" fill="white"/>
    <path d="M18.9302 44.3382C18.9584 44.342 18.987 44.3397 19.0143 44.3316C19.0415 44.3235 19.0666 44.3096 19.088 44.291C19.1095 44.2724 19.1266 44.2495 19.1384 44.2237C19.1501 44.198 19.1562 44.17 19.1562 44.1417C19.1562 44.1134 19.1501 44.0855 19.1384 44.0597C19.1266 44.034 19.1095 44.011 19.088 43.9924C19.0666 43.9738 19.0415 43.96 19.0143 43.9518C18.987 43.9437 18.9584 43.9415 18.9302 43.9453H18.5174C18.3978 44.075 18.2856 44.2048 18.1552 44.3382H18.9302Z" fill="white"/>
    <path d="M13.362 59.3803L11.2324 57.5383C11.1962 57.6825 11.1673 57.8303 11.1347 57.9781C11.7286 58.4864 12.9455 59.5353 13.0324 59.6146V78.5606C13.1664 78.8526 13.2968 79.141 13.4344 79.4294V59.5281C13.4339 59.5004 13.4279 59.4731 13.4167 59.4477C13.4055 59.4223 13.3894 59.3994 13.3692 59.3803" fill="white"/>
    <path d="M39.3369 90.3442C39.3374 90.3704 39.3325 90.3964 39.3227 90.4207C39.3129 90.4449 39.2982 90.467 39.2796 90.4855C39.261 90.504 39.2389 90.5186 39.2145 90.5284C39.1901 90.5382 39.164 90.543 39.1377 90.5425H36.7076L34.8134 92.5539C34.9293 92.7119 34.9914 92.9026 34.9909 93.0982C34.9945 93.2899 34.9406 93.4785 34.8362 93.6397C34.7318 93.8009 34.5815 93.9275 34.4045 94.0034C34.2275 94.0793 34.0318 94.101 33.8423 94.0658C33.6528 94.0306 33.4782 93.94 33.3407 93.8057C33.2031 93.6713 33.1088 93.4992 33.0699 93.3114C33.031 93.1235 33.0491 92.9284 33.122 92.7508C33.1949 92.5732 33.3193 92.4213 33.4792 92.3143C33.6392 92.2073 33.8276 92.1502 34.0203 92.1501C34.1962 92.1502 34.3689 92.1975 34.5201 92.2871L36.4758 90.2108C36.4948 90.1896 36.5183 90.1728 36.5446 90.1616C36.5709 90.1504 36.5993 90.145 36.6279 90.146H39.1377C39.1638 90.146 39.1897 90.1511 39.2139 90.161C39.2381 90.171 39.26 90.1856 39.2785 90.204C39.297 90.2224 39.3117 90.2443 39.3217 90.2683C39.3317 90.2924 39.3369 90.3182 39.3369 90.3442Z" fill="white"/>
    <path d="M31.3054 89.6306C31.3778 89.5296 32.6598 87.8571 32.6598 87.8571C32.6857 87.8241 32.6997 87.7835 32.6997 87.7417V82.4429C32.7035 82.4144 32.7012 82.3854 32.6929 82.3578C32.6845 82.3303 32.6704 82.3048 32.6513 82.2831C32.6323 82.2614 32.6088 82.2441 32.5825 82.2322C32.5562 82.2203 32.5276 82.2141 32.4987 82.2141C32.4698 82.2141 32.4412 82.2203 32.4148 82.2322C32.3885 82.2441 32.365 82.2614 32.346 82.2831C32.327 82.3048 32.3128 82.3303 32.3045 82.3578C32.2961 82.3854 32.2938 82.4144 32.2977 82.4429V87.6696C32.2252 87.7706 30.9396 89.4431 30.9396 89.4431C30.9158 89.4772 30.902 89.5171 30.8997 89.5585V95.4304C30.9008 95.48 30.9201 95.5275 30.9541 95.5638C30.9541 95.5638 31.0229 95.6431 31.1351 95.7621L31.9898 96.0937L31.3054 95.3547V89.6306Z" fill="white"/>
    <path d="M31.6707 87.0568C31.6858 87.0419 31.6976 87.0238 31.7051 87.0039C31.7126 86.984 31.7157 86.9627 31.7142 86.9415V81.6427C31.7142 81.5901 31.6932 81.5396 31.6558 81.5025C31.6185 81.4653 31.5678 81.4444 31.515 81.4444C31.4887 81.4439 31.4626 81.4487 31.4382 81.4585C31.4138 81.4683 31.3916 81.4829 31.373 81.5014C31.3544 81.5199 31.3398 81.5419 31.3299 81.5662C31.3201 81.5905 31.3153 81.6165 31.3158 81.6427V86.8766L29.954 88.6537C29.9282 88.688 29.9142 88.7297 29.9142 88.7726V95.261L30.3198 95.4412V88.8303L31.6707 87.0568Z" fill="white"/>
    <path d="M30.5502 86.3827C30.5781 86.3493 30.5935 86.3072 30.5937 86.2638V80.9721C30.5871 80.9237 30.5631 80.8793 30.5262 80.8471C30.4892 80.8149 30.4418 80.7972 30.3927 80.7972C30.3436 80.7972 30.2961 80.8149 30.2592 80.8471C30.2222 80.8793 30.1982 80.9237 30.1917 80.9721V86.1989C30.1192 86.3034 28.8625 87.9688 28.8625 87.9688C28.8339 88.003 28.8196 88.0469 28.8227 88.0913V94.7491C28.9567 94.814 29.0871 94.8825 29.2211 94.9437V88.1562L30.5502 86.3827Z" fill="white"/>
    <path d="M29.7033 85.961C29.725 85.9249 29.7375 85.884 29.7395 85.842V80.5468C29.7395 80.4933 29.7182 80.4419 29.6801 80.4041C29.6421 80.3662 29.5905 80.345 29.5367 80.345C29.4829 80.345 29.4313 80.3662 29.3933 80.4041C29.3553 80.4419 29.3339 80.4933 29.3339 80.5468V85.7699C29.2615 85.8745 28.0048 87.547 28.0048 87.547C27.9819 87.5813 27.9694 87.6213 27.9685 87.6624V94.3166L28.3669 94.5184V87.7309L29.7033 85.961Z" fill="white"/>
    <path d="M28.828 85.5356C28.8529 85.5035 28.8668 85.4644 28.8679 85.4239V80.1287C28.8684 80.1018 28.8635 80.0752 28.8535 80.0503C28.8435 80.0254 28.8286 80.0027 28.8098 79.9836C28.7909 79.9645 28.7684 79.9493 28.7435 79.9389C28.7187 79.9285 28.692 79.9232 28.6651 79.9232C28.6383 79.9232 28.6118 79.9285 28.5871 79.9389C28.5625 79.9494 28.5402 79.9646 28.5216 79.9838C28.503 80.003 28.4885 80.0257 28.4789 80.0506C28.4693 80.0755 28.4649 80.102 28.4659 80.1287V85.3554C28.3934 85.4563 27.1367 87.1289 27.1367 87.1289C27.1098 87.1598 27.0955 87.1997 27.0969 87.2406V93.8516L27.4989 94.0786V87.3091C27.5713 87.2082 28.828 85.5356 28.828 85.5356Z" fill="white"/>
    <path d="M36.4329 83.7514C36.4338 83.972 36.3578 84.1861 36.2178 84.357C36.0777 84.528 35.8823 84.6452 35.6651 84.6887V86.7253C35.6649 86.7687 35.6495 86.8108 35.6216 86.8442C35.6216 86.8442 32.4889 90.8526 32.4056 90.9499V94.3419C32.507 94.4464 34.2164 96.2776 34.2164 96.2776C34.2335 96.2952 34.2469 96.3161 34.2556 96.3391C34.2643 96.362 34.2682 96.3865 34.2671 96.4109V96.8327L33.8651 96.7173V96.4867L32.0543 94.551C32.0224 94.5134 32.0033 94.4667 32 94.4176V90.8886C32.0005 90.8441 32.0158 90.801 32.0434 90.7661L35.2594 86.6604V84.6887C35.0851 84.648 34.9258 84.5592 34.7998 84.4326C34.6738 84.3059 34.5863 84.1465 34.5472 83.9725C34.5081 83.7986 34.5191 83.6172 34.5789 83.4492C34.6386 83.2812 34.7448 83.1334 34.8851 83.0227C35.0255 82.912 35.1943 82.8429 35.3723 82.8233C35.5503 82.8038 35.7302 82.8346 35.8914 82.9122C36.0526 82.9898 36.1886 83.111 36.2837 83.262C36.3788 83.413 36.4293 83.5876 36.4292 83.7659L36.4329 83.7514Z" fill="white"/>
    <path d="M60.7209 85.6113V89.1439C60.7207 89.1688 60.7154 89.1935 60.7055 89.2164C60.6955 89.2393 60.6811 89.26 60.663 89.2773L58.8522 91.213V94.4571C58.7218 94.5256 58.5878 94.6013 58.4502 94.6662V91.1517C58.4491 91.1024 58.4673 91.0546 58.5009 91.0183C58.5009 91.0183 60.2103 89.1871 60.3117 89.0826V85.6942L57.0957 81.5849C57.0698 81.5506 57.0559 81.5089 57.0559 81.466V79.4618C56.8211 79.4124 56.6131 79.2781 56.472 79.085C56.3308 78.8919 56.2666 78.6536 56.2915 78.4161C56.3165 78.1786 56.429 77.9588 56.6072 77.7989C56.7855 77.6391 57.0169 77.5507 57.2569 77.5507C57.4968 77.5507 57.7282 77.6391 57.9065 77.7989C58.0847 77.9588 58.1972 78.1786 58.2222 78.4161C58.2472 78.6536 58.1829 78.8919 58.0417 79.085C57.9006 79.2781 57.6926 79.4124 57.4579 79.4618V81.3795C57.5339 81.4804 60.6702 85.4888 60.6702 85.4888C60.6998 85.5232 60.7176 85.5662 60.7209 85.6113Z" fill="white"/>
    <path d="M59.6735 87.8354C59.6584 88.081 59.5498 88.3115 59.3697 88.4801C59.1897 88.6486 58.9519 88.7425 58.7047 88.7425C58.4576 88.7425 58.2197 88.6486 58.0397 88.4801C57.8597 88.3115 57.751 88.081 57.7359 87.8354C57.7354 87.6398 57.7976 87.4492 57.9134 87.2911L56.0157 85.2833H54.3859C54.3129 85.4627 54.1877 85.6162 54.0264 85.7241C53.865 85.832 53.6749 85.8894 53.4805 85.8889C53.2952 85.8858 53.1147 85.8289 52.9614 85.7253C52.808 85.6216 52.6884 85.4756 52.6172 85.3053C52.546 85.1349 52.5262 84.9476 52.5604 84.7663C52.5946 84.5849 52.6812 84.4174 52.8096 84.2843C52.938 84.1513 53.1026 84.0584 53.2833 84.0171C53.464 83.9758 53.6529 83.9878 53.8267 84.0518C54.0006 84.1158 54.152 84.2288 54.2622 84.3772C54.3725 84.5255 54.4369 84.7026 54.4475 84.8868H56.1026C56.1299 84.8872 56.1569 84.8931 56.1818 84.9043C56.2067 84.9154 56.2291 84.9316 56.2474 84.9517L58.2104 87.0244C58.3558 86.9423 58.5201 86.8991 58.6873 86.8988C58.8545 86.8986 59.019 86.9413 59.1647 87.0229C59.3104 87.1045 59.4325 87.2222 59.5191 87.3645C59.6057 87.5069 59.6539 87.6691 59.659 87.8354H59.6735Z" fill="white"/>
    <path d="M25.6567 74.4982C25.6558 74.6235 25.63 74.7474 25.5809 74.8627C25.5317 74.978 25.4602 75.0826 25.3703 75.1703C25.2805 75.2581 25.1741 75.3273 25.0573 75.374C24.9405 75.4208 24.8156 75.4441 24.6898 75.4427C24.4796 75.444 24.2747 75.3772 24.1061 75.2523C23.9375 75.1275 23.8144 74.9513 23.7554 74.7506H19.8477C19.7948 74.7506 19.7442 74.7297 19.7068 74.6925C19.6694 74.6553 19.6485 74.6049 19.6485 74.5523C19.6485 74.4997 19.6694 74.4493 19.7068 74.4121C19.7442 74.3749 19.7948 74.3541 19.8477 74.3541H23.73C23.7678 74.1281 23.8851 73.9228 24.0609 73.7749C24.2367 73.627 24.4596 73.5461 24.6898 73.5466C24.8161 73.5457 24.9414 73.5696 25.0584 73.6169C25.1755 73.6643 25.282 73.7342 25.3718 73.8226C25.4616 73.911 25.5331 74.0162 25.582 74.1321C25.6309 74.2481 25.6563 74.3725 25.6567 74.4982Z" fill="white"/>
    <path d="M24.7878 61.8315C24.7907 61.64 24.7363 61.4519 24.6316 61.2913C24.5269 61.1306 24.3765 61.0045 24.1996 60.9291C24.0228 60.8537 23.8274 60.8323 23.6383 60.8676C23.4491 60.9029 23.2748 60.9934 23.1375 61.1276C23.0002 61.2617 22.906 61.4335 22.8669 61.621C22.8279 61.8086 22.8457 62.0034 22.9182 62.1808C22.9907 62.3583 23.1145 62.5102 23.2739 62.6175C23.4333 62.7247 23.6212 62.7824 23.8136 62.7831C24.0695 62.785 24.3156 62.686 24.4982 62.5076C24.6808 62.3292 24.785 62.0861 24.7878 61.8315Z" fill="white"/>
    <path d="M28.919 53.9626C28.9211 53.772 28.8663 53.585 28.7616 53.4254C28.6568 53.2658 28.5067 53.1407 28.3305 53.0661C28.1542 52.9915 27.9596 52.9707 27.7714 53.0063C27.5832 53.0419 27.4099 53.1324 27.2735 53.2662C27.137 53.4 27.0435 53.5711 27.0049 53.7578C26.9663 53.9446 26.9843 54.1385 27.0566 54.3151C27.1289 54.4916 27.2523 54.6428 27.411 54.7495C27.5698 54.8562 27.7568 54.9135 27.9484 54.9142C28.075 54.9157 28.2007 54.8921 28.3181 54.845C28.4356 54.7979 28.5425 54.728 28.6328 54.6396C28.723 54.5511 28.7947 54.4458 28.8438 54.3296C28.893 54.2134 28.9185 54.0887 28.919 53.9626Z" fill="white"/>
    <path d="M27.3007 56.1434H28.7856C28.7023 56.2732 28.6153 56.403 28.532 56.5363H27.2101C27.1805 56.5361 27.1513 56.5296 27.1244 56.5172C27.0975 56.5047 27.0737 56.4867 27.0544 56.4642L24.7873 53.7499H22.9004C22.8742 53.7502 22.8482 53.7453 22.8239 53.7354C22.7996 53.7255 22.7776 53.7108 22.7592 53.6923L21.995 52.9281C21.9753 52.9111 21.9595 52.8901 21.9489 52.8664C21.9382 52.8427 21.933 52.817 21.9334 52.7911V50.084C21.9337 50.0451 21.9464 50.0072 21.9697 49.9759L22.4586 49.2225C22.4781 49.1966 22.5032 49.1754 22.532 49.1604C22.5608 49.1454 22.5927 49.1371 22.6252 49.136H26.0367L27.0617 48.7431C27.0581 48.6975 27.0581 48.6517 27.0617 48.6061C27.0583 48.3739 27.1395 48.1484 27.2901 47.971C27.4408 47.7937 27.6507 47.6766 27.8813 47.6412C28.1119 47.6059 28.3476 47.6547 28.5448 47.7787C28.7421 47.9027 28.8877 48.0935 28.9547 48.3159C29.0218 48.5383 29.0058 48.7773 28.9096 48.9889C28.8135 49.2005 28.6438 49.3704 28.4317 49.4672C28.2197 49.564 27.9796 49.5813 27.7557 49.5158C27.5319 49.4503 27.3394 49.3064 27.2138 49.1108L26.1563 49.5145C26.1323 49.5182 26.1078 49.5182 26.0838 49.5145H22.7519L22.3354 50.1345V52.6974C22.426 52.7875 22.8895 53.2525 22.9801 53.339H24.8778C24.9077 53.3399 24.937 53.3471 24.9639 53.3601C24.9908 53.3732 25.0145 53.3918 25.0336 53.4147C25.0336 53.4147 27.192 56.0028 27.3007 56.1434Z" fill="white"/>
    <path d="M17.8432 46.6956V55.3468L18.5965 56.2119H20.8166L22.2254 54.4348C22.2445 54.4113 22.2689 54.3925 22.2965 54.38C22.3242 54.3675 22.3544 54.3616 22.3848 54.3627H24.3622C24.3908 54.361 24.4195 54.366 24.4459 54.3772C24.4723 54.3885 24.4957 54.4057 24.5143 54.4276L27.0494 57.3113H28.0707C27.9983 57.4375 27.9331 57.5744 27.8643 57.7006H26.948C26.8955 57.7039 26.8437 57.6872 26.8031 57.6537L24.268 54.77H22.4789L21.0774 56.5471C21.0586 56.5715 21.0345 56.5914 21.0069 56.6051C20.9793 56.6189 20.9489 56.6261 20.918 56.6264H18.506C18.4773 56.6258 18.4491 56.6193 18.4229 56.6076C18.3968 56.5958 18.3733 56.5789 18.3539 56.5579L17.4883 55.545C17.4622 55.5079 17.4472 55.4641 17.4449 55.4189V46.6307C17.4449 46.5867 17.4588 46.5438 17.4847 46.5082L18.343 45.4268C18.3632 45.4033 18.3882 45.3844 18.4163 45.3714C18.4444 45.3583 18.475 45.3514 18.506 45.3511H20.9252C21.0267 45.2538 22.0733 44.3057 22.0733 44.3057C22.1112 44.2724 22.1603 44.2544 22.2109 44.2553H27.0023C27.0507 44.0238 27.1836 43.8185 27.3754 43.6789C27.5671 43.5394 27.804 43.4755 28.0402 43.4997C28.2765 43.5239 28.4954 43.6345 28.6545 43.81C28.8136 43.9855 28.9017 44.2135 28.9017 44.4499C28.9017 44.6863 28.8136 44.9143 28.6545 45.0899C28.4954 45.2654 28.2765 45.3759 28.0402 45.4001C27.804 45.4244 27.5671 45.3605 27.3754 45.2209C27.1836 45.0814 27.0507 44.876 27.0023 44.6446H22.287L21.1389 45.6935C21.1021 45.7263 21.0543 45.7443 21.0049 45.744H18.6038L17.8432 46.6956Z" fill="white"/>
    <path d="M29.1149 39.6918C29.113 39.9454 29.0101 40.188 28.8289 40.3664C28.6477 40.5447 28.4028 40.6443 28.1479 40.6434C28.0524 40.6431 27.9573 40.6298 27.8654 40.6037L26.1741 43.4262C26.1566 43.4564 26.1312 43.4814 26.1006 43.4986C26.07 43.5157 26.0354 43.5243 26.0003 43.5235H22.3316C22.3034 43.5238 22.2755 43.5185 22.2494 43.508C22.2233 43.4975 22.1995 43.4819 22.1795 43.4622L20.7743 41.9951H20.4121C20.5461 41.8618 20.6874 41.732 20.8286 41.6022H20.8576C20.912 41.6032 20.964 41.6252 21.0024 41.6635C21.0024 41.6635 22.3062 43.0189 22.4076 43.1306H25.8808C25.9568 43.008 26.8984 41.4292 27.5105 40.4091C27.4037 40.3217 27.318 40.2115 27.2597 40.0867C27.2014 39.962 27.172 39.8258 27.1737 39.6882C27.1888 39.4426 27.2974 39.2121 27.4774 39.0435C27.6575 38.8749 27.8953 38.7811 28.1425 38.7811C28.3896 38.7811 28.6275 38.8749 28.8075 39.0435C28.9875 39.2121 29.0962 39.4426 29.1113 39.6882L29.1149 39.6918Z" fill="white"/>
    <path d="M31.0253 53.375C30.9823 53.4052 30.9292 53.4176 30.8771 53.4096C30.8251 53.4015 30.7782 53.3736 30.7465 53.3317C30.7465 53.3317 29.7143 51.9512 29.5984 51.8106H24.7636C24.7129 52.0228 24.5915 52.2117 24.4192 52.3465C24.2469 52.4813 24.0339 52.5542 23.8147 52.5531C23.5621 52.5531 23.3198 52.4533 23.1412 52.2755C22.9626 52.0977 22.8622 51.8565 22.8622 51.6051C22.8622 51.3537 22.9626 51.1125 23.1412 50.9348C23.3198 50.757 23.5621 50.6571 23.8147 50.6571C24.0364 50.656 24.2519 50.7305 24.4252 50.8682C24.5985 51.0059 24.7192 51.1986 24.7672 51.4141H29.6998C29.7313 51.4138 29.7624 51.4208 29.7907 51.4346C29.819 51.4483 29.8437 51.4685 29.8628 51.4934L31.0688 53.101C31.099 53.1433 31.1113 53.1956 31.1032 53.2468C31.0951 53.298 31.0671 53.344 31.0253 53.375Z" fill="white"/>
    <path d="M24.7878 46.3388C24.7907 46.1473 24.7363 45.9593 24.6316 45.7987C24.5269 45.638 24.3765 45.5119 24.1996 45.4365C24.0228 45.361 23.8274 45.3396 23.6383 45.375C23.4491 45.4103 23.2748 45.5008 23.1375 45.635C23.0002 45.7691 22.906 45.9409 22.8669 46.1284C22.8279 46.3159 22.8457 46.5108 22.9182 46.6882C22.9907 46.8656 23.1145 47.0176 23.2739 47.1249C23.4333 47.2321 23.6212 47.2897 23.8136 47.2905C23.9404 47.2919 24.0663 47.2684 24.1839 47.2213C24.3016 47.1742 24.4088 47.1044 24.4993 47.016C24.5898 46.9276 24.6619 46.8223 24.7114 46.7061C24.7609 46.5899 24.7869 46.4651 24.7878 46.3388Z" fill="white"/>
    <path d="M20.6894 64.5026C20.693 64.3106 20.6391 64.122 20.5345 63.9607C20.4299 63.7994 20.2794 63.6728 20.1021 63.597C19.9249 63.5212 19.729 63.4997 19.5395 63.5352C19.3499 63.5707 19.1753 63.6616 19.0379 63.7963C18.9005 63.9311 18.8065 64.1035 18.768 64.2916C18.7294 64.4797 18.7481 64.675 18.8215 64.8525C18.895 65.03 19.0199 65.1817 19.1804 65.2882C19.3409 65.3948 19.5296 65.4513 19.7224 65.4506C19.8485 65.4516 19.9735 65.4278 20.0903 65.3807C20.2071 65.3335 20.3134 65.264 20.4032 65.1759C20.493 65.0879 20.5645 64.9831 20.6136 64.8676C20.6627 64.7521 20.6885 64.628 20.6894 64.5026Z" fill="white"/>
    <path d="M26.6152 60.8979C26.5681 61.0421 26.5319 61.1899 26.4921 61.3449C26.0357 60.8727 25.6084 60.4293 25.268 60.0833C25.3119 60.0727 25.3514 60.0485 25.3807 60.0142C25.41 59.9799 25.4276 59.9372 25.4309 59.8922C25.4281 59.8396 25.4052 59.7901 25.3667 59.7539C25.3283 59.7177 25.2774 59.6975 25.2245 59.6976H24.8913C24.6849 59.4849 24.5545 59.3371 24.5291 59.3371H20.6468C20.598 59.5644 20.4664 59.7657 20.2774 59.9022C20.0884 60.0387 19.8553 60.1007 19.6231 60.0763C19.3909 60.0519 19.176 59.9428 19.0197 59.77C18.8635 59.5973 18.7771 59.3731 18.7771 59.1407C18.7771 58.9083 18.8635 58.6841 19.0197 58.5113C19.176 58.3385 19.3909 58.2295 19.6231 58.2051C19.8553 58.1807 20.0884 58.2427 20.2774 58.3792C20.4664 58.5156 20.598 58.7169 20.6468 58.9442H24.6305C24.6857 58.9433 24.7391 58.964 24.779 59.0019L26.6152 60.8979Z" fill="white"/>
    <path d="M31.0516 48.1195C31.0138 48.156 30.9631 48.1765 30.9104 48.1765C30.8576 48.1765 30.807 48.156 30.7691 48.1195C30.7691 48.1195 30.0701 47.4346 29.9615 47.3373H27.1113L25.793 48.5484C25.7552 48.5825 25.7063 48.6017 25.6554 48.6025H22.0337L21.5702 49.0026V51.8683C21.5701 51.8952 21.5646 51.9218 21.554 51.9466C21.5434 51.9713 21.528 51.9938 21.5086 52.0125L20.5308 52.9028C20.6352 53.0559 20.6907 53.2369 20.6901 53.4219C20.6878 53.6336 20.6149 53.8386 20.4828 54.0045C20.3507 54.1705 20.167 54.2881 19.9605 54.3389C19.754 54.3896 19.5364 54.3707 19.3419 54.2849C19.1473 54.1992 18.987 54.0516 18.8859 53.8653C18.7849 53.679 18.7489 53.4645 18.7836 53.2556C18.8183 53.0467 18.9218 52.8552 19.0777 52.7112C19.2337 52.5672 19.4333 52.4789 19.6451 52.4601C19.857 52.4412 20.0692 52.493 20.2483 52.6073L21.1718 51.7674V48.8837C21.1716 48.855 21.1776 48.8266 21.1895 48.8004C21.2014 48.7743 21.2188 48.751 21.2406 48.7323L21.8454 48.224C21.8822 48.1939 21.9282 48.1773 21.9758 48.1771H25.5757L26.8976 46.966C26.9335 46.9313 26.9816 46.9119 27.0316 46.9119H30.0629C30.1166 46.913 30.1681 46.9335 30.2078 46.9696L31.0661 47.8131C31.0893 47.832 31.1077 47.856 31.1199 47.8832C31.132 47.9104 31.1377 47.9401 31.1362 47.9699C31.1348 47.9997 31.1265 48.0287 31.1118 48.0547C31.0971 48.0806 31.0765 48.1028 31.0516 48.1195Z" fill="white"/>
    <path d="M20.6894 48.3286C20.693 48.1366 20.6391 47.948 20.5345 47.7867C20.4299 47.6254 20.2794 47.4987 20.1021 47.423C19.9249 47.3472 19.729 47.3257 19.5395 47.3612C19.3499 47.3967 19.1753 47.4876 19.0379 47.6223C18.9005 47.757 18.8065 47.9295 18.768 48.1176C18.7294 48.3057 18.7481 48.5009 18.8215 48.6785C18.895 48.856 19.0199 49.0077 19.1804 49.1142C19.3409 49.2207 19.5296 49.2773 19.7224 49.2766C19.8485 49.2775 19.9735 49.2538 20.0903 49.2066C20.2071 49.1595 20.3134 49.0899 20.4032 49.0019C20.493 48.9139 20.5645 48.8091 20.6136 48.6936C20.6627 48.578 20.6885 48.454 20.6894 48.3286Z" fill="white"/>
    <defs>
        <filter id="filter0_d_129_9730" x="273.237" y="72.5957" width="70.0986" height="22.1411" filterUnits="userSpaceOnUse" color-interpolation-filters="sRGB">
            <feFlood flood-opacity="0" result="BackgroundImageFix"/>
            <feColorMatrix in="SourceAlpha" type="matrix" values="0 0 0 0 0 0 0 0 0 0 0 0 0 0 0 0 0 0 127 0" result="hardAlpha"/>
            <feOffset dx="2" dy="2"/>
            <feGaussianBlur stdDeviation="2"/>
            <feComposite in2="hardAlpha" operator="out"/>
            <feColorMatrix type="matrix" values="0 0 0 0 0 0 0 0 0 0 0 0 0 0 0 0 0 0 0.15 0"/>
            <feBlend mode="normal" in2="BackgroundImageFix" result="effect1_dropShadow_129_9730"/>
            <feBlend mode="normal" in="SourceGraphic" in2="effect1_dropShadow_129_9730" result="shape"/>
        </filter>
        <filter id="filter1_ddd_129_9730" x="224.01" y="0.699707" width="95.2236" height="86.5625" filterUnits="userSpaceOnUse" color-interpolation-filters="sRGB">
            <feFlood flood-opacity="0" result="BackgroundImageFix"/>
            <feColorMatrix in="SourceAlpha" type="matrix" values="0 0 0 0 0 0 0 0 0 0 0 0 0 0 0 0 0 0 127 0" result="hardAlpha"/>
            <feOffset dy="8"/>
            <feGaussianBlur stdDeviation="4"/>
            <feComposite in2="hardAlpha" operator="out"/>
            <feColorMatrix type="matrix" values="0 0 0 0 0 0 0 0 0 0 0 0 0 0 0 0 0 0 0.03 0"/>
            <feBlend mode="normal" in2="BackgroundImageFix" result="effect1_dropShadow_129_9730"/>
            <feColorMatrix in="SourceAlpha" type="matrix" values="0 0 0 0 0 0 0 0 0 0 0 0 0 0 0 0 0 0 127 0" result="hardAlpha"/>
            <feOffset dy="2"/>
            <feGaussianBlur stdDeviation="5"/>
            <feComposite in2="hardAlpha" operator="out"/>
            <feColorMatrix type="matrix" values="0 0 0 0 0 0 0 0 0 0 0 0 0 0 0 0 0 0 0.05 0"/>
            <feBlend mode="normal" in2="effect1_dropShadow_129_9730" result="effect2_dropShadow_129_9730"/>
            <feColorMatrix in="SourceAlpha" type="matrix" values="0 0 0 0 0 0 0 0 0 0 0 0 0 0 0 0 0 0 127 0" result="hardAlpha"/>
            <feOffset dx="2" dy="2"/>
            <feGaussianBlur stdDeviation="2"/>
            <feComposite in2="hardAlpha" operator="out"/>
            <feColorMatrix type="matrix" values="0 0 0 0 0 0 0 0 0 0 0 0 0 0 0 0 0 0 0.15 0"/>
            <feBlend mode="normal" in2="effect2_dropShadow_129_9730" result="effect3_dropShadow_129_9730"/>
            <feBlend mode="normal" in="SourceGraphic" in2="effect3_dropShadow_129_9730" result="shape"/>
        </filter>
        <filter id="filter2_ddd_129_9730" x="70.0791" y="37.415" width="210.208" height="68.4121" filterUnits="userSpaceOnUse" color-interpolation-filters="sRGB">
            <feFlood flood-opacity="0" result="BackgroundImageFix"/>
            <feColorMatrix in="SourceAlpha" type="matrix" values="0 0 0 0 0 0 0 0 0 0 0 0 0 0 0 0 0 0 127 0" result="hardAlpha"/>
            <feOffset dy="8"/>
            <feGaussianBlur stdDeviation="4"/>
            <feComposite in2="hardAlpha" operator="out"/>
            <feColorMatrix type="matrix" values="0 0 0 0 0 0 0 0 0 0 0 0 0 0 0 0 0 0 0.03 0"/>
            <feBlend mode="normal" in2="BackgroundImageFix" result="effect1_dropShadow_129_9730"/>
            <feColorMatrix in="SourceAlpha" type="matrix" values="0 0 0 0 0 0 0 0 0 0 0 0 0 0 0 0 0 0 127 0" result="hardAlpha"/>
            <feOffset dy="2"/>
            <feGaussianBlur stdDeviation="5"/>
            <feComposite in2="hardAlpha" operator="out"/>
            <feColorMatrix type="matrix" values="0 0 0 0 0 0 0 0 0 0 0 0 0 0 0 0 0 0 0.05 0"/>
            <feBlend mode="normal" in2="effect1_dropShadow_129_9730" result="effect2_dropShadow_129_9730"/>
            <feColorMatrix in="SourceAlpha" type="matrix" values="0 0 0 0 0 0 0 0 0 0 0 0 0 0 0 0 0 0 127 0" result="hardAlpha"/>
            <feOffset dx="2" dy="2"/>
            <feGaussianBlur stdDeviation="2"/>
            <feComposite in2="hardAlpha" operator="out"/>
            <feColorMatrix type="matrix" values="0 0 0 0 0 0 0 0 0 0 0 0 0 0 0 0 0 0 0.15 0"/>
            <feBlend mode="normal" in2="effect2_dropShadow_129_9730" result="effect3_dropShadow_129_9730"/>
            <feBlend mode="normal" in="SourceGraphic" in2="effect3_dropShadow_129_9730" result="shape"/>
        </filter>
        <filter id="filter3_ddd_129_9730" x="0.230469" y="24.8145" width="85.5801" height="89.2671" filterUnits="userSpaceOnUse" color-interpolation-filters="sRGB">
            <feFlood flood-opacity="0" result="BackgroundImageFix"/>
            <feColorMatrix in="SourceAlpha" type="matrix" values="0 0 0 0 0 0 0 0 0 0 0 0 0 0 0 0 0 0 127 0" result="hardAlpha"/>
            <feOffset dy="8"/>
            <feGaussianBlur stdDeviation="4"/>
            <feComposite in2="hardAlpha" operator="out"/>
            <feColorMatrix type="matrix" values="0 0 0 0 0 0 0 0 0 0 0 0 0 0 0 0 0 0 0.05 0"/>
            <feBlend mode="normal" in2="BackgroundImageFix" result="effect1_dropShadow_129_9730"/>
            <feColorMatrix in="SourceAlpha" type="matrix" values="0 0 0 0 0 0 0 0 0 0 0 0 0 0 0 0 0 0 127 0" result="hardAlpha"/>
            <feOffset dy="2"/>
            <feGaussianBlur stdDeviation="5"/>
            <feComposite in2="hardAlpha" operator="out"/>
            <feColorMatrix type="matrix" values="0 0 0 0 0 0 0 0 0 0 0 0 0 0 0 0 0 0 0.1 0"/>
            <feBlend mode="normal" in2="effect1_dropShadow_129_9730" result="effect2_dropShadow_129_9730"/>
            <feColorMatrix in="SourceAlpha" type="matrix" values="0 0 0 0 0 0 0 0 0 0 0 0 0 0 0 0 0 0 127 0" result="hardAlpha"/>
            <feOffset dx="2" dy="2"/>
            <feGaussianBlur stdDeviation="2"/>
            <feComposite in2="hardAlpha" operator="out"/>
            <feColorMatrix type="matrix" values="0 0 0 0 0 0 0 0 0 0 0 0 0 0 0 0 0 0 0.15 0"/>
            <feBlend mode="normal" in2="effect2_dropShadow_129_9730" result="effect3_dropShadow_129_9730"/>
            <feBlend mode="normal" in="SourceGraphic" in2="effect3_dropShadow_129_9730" result="shape"/>
        </filter>
        <linearGradient id="paint0_linear_129_9730" x1="43.0207" y1="98.062" x2="43.0207" y2="5.3866" gradientUnits="userSpaceOnUse">
            <stop stop-color="#58B4E8"/>
            <stop offset="1" stop-color="#B3E6FA"/>
        </linearGradient>
    </defs>
</svg>
