<svg width="20" height="20" viewBox="0 0 20 20" fill="currentColor" xmlns="http://www.w3.org/2000/svg">
<path fill-rule="evenodd" clip-rule="evenodd" d="M6.8194 0.759494C6.86728 0.544097 6.98717 0.351463 7.15928 0.213385C7.33139 0.0753072 7.54544 3.78658e-05 7.7661 0H11.646C11.8667 3.78658e-05 12.0807 0.0753072 12.2528 0.213385C12.4249 0.351463 12.5448 0.544097 12.5927 0.759494L13.0195 2.68102C13.4075 2.86532 13.7771 3.07871 14.1253 3.32121L16.0051 2.72952C16.2156 2.66334 16.4424 2.6709 16.648 2.75096C16.8536 2.83102 17.0258 2.97879 17.1361 3.16989L19.0761 6.5299C19.1864 6.72103 19.2283 6.94408 19.1948 7.16223C19.1613 7.38038 19.0544 7.58057 18.8918 7.72977L17.4397 9.06155C17.4743 9.48634 17.4743 9.91325 17.4397 10.338L18.8918 11.6698C19.0544 11.819 19.1613 12.0192 19.1948 12.2374C19.2283 12.4555 19.1864 12.6786 19.0761 12.8697L17.1361 16.2297C17.0258 16.4208 16.8536 16.5686 16.648 16.6486C16.4424 16.7287 16.2156 16.7363 16.0051 16.6701L14.1263 16.0784C13.7771 16.3209 13.4075 16.5343 13.0205 16.7186L12.5937 18.6391C12.546 18.8549 12.426 19.0478 12.2537 19.1861C12.0813 19.3244 11.867 19.3997 11.646 19.3996H7.7661C7.54544 19.3995 7.33139 19.3243 7.15928 19.1862C6.98717 19.0481 6.86728 18.8555 6.8194 18.6401L6.3926 16.7186C6.00461 16.5343 5.63505 16.3209 5.28683 16.0784L3.40701 16.6701C3.19651 16.7363 2.96974 16.7287 2.76412 16.6486C2.55851 16.5686 2.38633 16.4208 2.27601 16.2297L0.336053 12.8697C0.225683 12.6786 0.183793 12.4555 0.2173 12.2374C0.250807 12.0192 0.357707 11.819 0.52035 11.6698L1.97241 10.338C1.93777 9.91325 1.93777 9.48634 1.97241 9.06155L0.52035 7.73074C0.357707 7.58154 0.250807 7.38134 0.2173 7.1632C0.183793 6.94505 0.225683 6.722 0.336053 6.53087L2.27601 3.17086C2.38633 2.97976 2.55851 2.83199 2.76412 2.75193C2.96974 2.67187 3.19651 2.66431 3.40701 2.73049L5.28586 3.32218C5.63505 3.07968 6.00461 2.86629 6.39163 2.68199L6.81843 0.761434L6.8194 0.759494ZM9.70605 12.6097C10.4778 12.6097 11.218 12.3032 11.7637 11.7574C12.3094 11.2117 12.616 10.4716 12.616 9.69979C12.616 8.92803 12.3094 8.18788 11.7637 7.64216C11.218 7.09644 10.4778 6.78986 9.70605 6.78986C8.93429 6.78986 8.19414 7.09644 7.64842 7.64216C7.1027 8.18788 6.79612 8.92803 6.79612 9.69979C6.79612 10.4716 7.1027 11.2117 7.64842 11.7574C8.19414 12.3032 8.93429 12.6097 9.70605 12.6097Z"/>
</svg>
