<svg width="24" height="24" viewBox="0 0 24 24" fill="currentColor" xmlns="http://www.w3.org/2000/svg">
<path d="M4.5 20.5H18.5V17.1071C18.4985 15.8478 17.9818 14.6405 17.0632 13.75C16.1446 12.8595 14.8991 12.3586 13.6 12.3571H9.4C8.10089 12.3586 6.85542 12.8595 5.93681 13.75C5.01821 14.6405 4.50148 15.8478 4.5 17.1071V20.5ZM6.6 6.25C6.6 7.18946 6.88738 8.10782 7.4258 8.88896C7.96422 9.67009 8.72949 10.2789 9.62485 10.6384C10.5202 10.9979 11.5054 11.092 12.4559 10.9087C13.4065 10.7254 14.2795 10.2731 14.9648 9.60876C15.6501 8.94446 16.1168 8.09809 16.3058 7.17668C16.4949 6.25527 16.3979 5.3002 16.027 4.43225C15.6561 3.5643 15.0281 2.82246 14.2223 2.30052C13.4165 1.77858 12.4691 1.5 11.5 1.5C10.2004 1.5 8.95411 2.00044 8.03518 2.89124C7.11625 3.78204 6.6 4.99022 6.6 6.25Z"/>
</svg>
