<svg width="718" height="87" viewBox="0 0 718 87" fill="none" xmlns="http://www.w3.org/2000/svg">
<path d="M6.70696 86.1387C7.09748 86.5293 7.73064 86.5293 8.12117 86.1387L14.4851 79.7748C14.8757 79.3843 14.8757 78.7511 14.4851 78.3606C14.0946 77.97 13.4614 77.97 13.0709 78.3606L7.41406 84.0174L1.75721 78.3606C1.36668 77.97 0.733519 77.97 0.342995 78.3606C-0.0475296 78.7511 -0.0475296 79.3843 0.342995 79.7748L6.70696 86.1387ZM710.666 0.414964C710.276 0.0244392 709.642 0.0244392 709.252 0.414964L702.888 6.77892C702.497 7.16945 702.497 7.80261 702.888 8.19314C703.278 8.58366 703.912 8.58366 704.302 8.19314L709.959 2.53628L715.616 8.19314C716.006 8.58366 716.64 8.58366 717.03 8.19314C717.421 7.80261 717.421 7.16945 717.03 6.77892L710.666 0.414964ZM8.41406 85.4316V43.8836H6.41406V85.4316H8.41406ZM710.959 35.8836V1.12207H708.959V35.8836H710.959ZM11.4141 40.8836H358.687V38.8836H11.4141V40.8836ZM358.687 40.8836H705.959V38.8836H358.687V40.8836ZM708.959 35.8836C708.959 37.5404 707.616 38.8836 705.959 38.8836V40.8836C708.72 40.8836 710.959 38.645 710.959 35.8836H708.959ZM8.41406 43.8836C8.41406 42.2267 9.75721 40.8836 11.4141 40.8836V38.8836C8.65264 38.8836 6.41406 41.1221 6.41406 43.8836H8.41406Z" fill="#C2C2C2"/>
</svg>
